<?xml version="1.0" encoding="utf-8"?>
<!-- Generator: Adobe Illustrator 20.0.0, SVG Export Plug-In . SVG Version: 6.00 Build 0)  -->
<svg version="1.1" id="Calque_1" xmlns="http://www.w3.org/2000/svg" xmlns:xlink="http://www.w3.org/1999/xlink" x="0px" y="0px"
	 viewBox="0 0 270 27" style="enable-background:new 0 0 270 27;" xml:space="preserve">
<style type="text/css">
	.st0{fill:#464646;}
	.st1{fill:#F9C737;}
</style>
<title>KS_logo_RGB_Grey_Yellow</title>
<desc>Created with Sketch.</desc>
<g id="Page-1">
	<g id="web_desktop_homepage" transform="translate(-225.000000, -66.000000)">
		<g id="KS_logo_RGB_Grey_Yellow" transform="translate(225.000000, 66.000000)">
			<path id="Fill-1" class="st0" d="M9.8,15.3v-0.2L19,5l-3.3-0.7V3h8.5v1.2l-3,0.7l-6.5,7l9,12.6l2.2,0.5v1.2h-8.1L9.8,15.3
				L9.8,15.3z M0.5,25.1l2.7-0.7V4.9L0.5,4.3V3H12v1.2L9.2,4.9v19.5l2.8,0.7v1.2H0.5V25.1L0.5,25.1z"/>
			<path id="Fill-2" class="st0" d="M29.7,3.1c0-1.6,1.3-2.9,2.9-2.9c1.6,0,2.9,1.3,2.9,2.9c0,1.6-1.3,2.9-2.9,2.9
				C31,6,29.7,4.7,29.7,3.1L29.7,3.1z M27.5,25.1l2.2-0.5V12.5l-2.2-1.6v-0.6l7.9-1.8v16.1l2.2,0.5v1.2H27.5V25.1L27.5,25.1z"/>
			<path id="Fill-3" class="st0" d="M218.9,3.1c0-1.6,1.3-2.9,2.9-2.9c1.6,0,2.9,1.3,2.9,2.9c0,1.6-1.3,2.9-2.9,2.9
				C220.1,6,218.9,4.7,218.9,3.1L218.9,3.1z M216.6,25.1l2.2-0.5V12.5l-2.2-1.6v-0.6l7.9-1.8v16.1l2.2,0.5v1.2h-10.2V25.1
				L216.6,25.1z"/>
			<path id="Fill-4" class="st0" d="M41.1,21.8L41.2,11h-2.6V9.8l2.6-0.9l4.9-4.3h0.6V9h5.1v2h-5.1v11c0.5,1.7,1.8,2.2,3.2,2.2
				c0.8,0,1.6-0.2,1.8-0.3l0.2,1c-1.3,0.7-3.3,1.9-6.2,1.9C42.5,26.8,41.1,25,41.1,21.8"/>
			<path id="Fill-5" class="st0" d="M53.9,17.8c0-5.7,4.5-9.4,9.4-9.4c3.6,0,6.3,2,6.3,4.3c0,1.6-1.2,2.4-2.9,2.4
				c-0.7,0-1.3-0.1-1.5-0.3l-1-4.4c-0.5-0.5-1.1-0.8-1.9-0.8c-2,0-3.3,2.1-3.3,5.1c0,5.3,2.9,8,6.2,8c2.2,0,4-1.2,4.3-1.5L70,22
				c-1.7,2.7-4.4,4.8-7.7,4.8C57.2,26.8,53.9,23.1,53.9,17.8"/>
			<path id="Fill-6" class="st0" d="M82.8,25.1l1.9-0.5v-9.5c0-2-1-3.3-2.9-3.3c-1,0-1.9,0.5-2.4,0.9v11.9l1.9,0.5v1.2h-9.6v-1.2
				l2.1-0.5V4.4l-2.1-1.3V2.4l7.7-2.3v11.3c1.2-1.2,3.4-3,6-3c3.1,0,5,1.7,5,5.4v10.7l2.2,0.6v1.2h-9.7V25.1"/>
			<path id="Fill-7" class="st0" d="M99.4,14.7h5.6c-0.2-2.8-1.2-4.8-2.8-4.8C100.7,9.9,99.6,11.4,99.4,14.7L99.4,14.7z M94.4,17.7
				c0-5.3,4.5-9.3,8.8-9.3c4.5,0,6.7,2.8,7.3,7.6H99.4c0.1,4.6,3.2,6.9,6.4,6.9c1.9,0,3.3-0.8,4.4-1.5l0.6,0.7
				c-1.7,2.4-4.3,4.7-8.1,4.7C97.7,26.8,94.4,22.7,94.4,17.7L94.4,17.7z"/>
			<path id="Fill-8" class="st0" d="M112.9,25.1l2.1-0.5V12.5l-2.1-1.4v-0.6l6.9-2h0.2l0.3,3.3h0.1c1.1-1.1,3.5-3.2,6.2-3.2
				c3.1,0,5,1.7,5,5.4v10.7l2.2,0.6v1.2h-9.7v-1.2l1.9-0.5v-9.5c0-2-1-3.3-2.9-3.3c-1,0-1.9,0.5-2.4,0.9v11.9l1.9,0.5v1.2h-9.6V25.1
				"/>
			<path id="Fill-9" class="st0" d="M143.6,18h1l3,6.1c0.9,0.7,2.1,1.3,3.8,1.3c2.3,0,4-1.6,4-3.9c0-1.9-0.9-2.9-3.4-4l-2.1-0.8
				c-3.9-1.6-5.6-3.8-5.6-7c0-3.6,3.1-7.4,9.3-7.4c2.1,0,4.3,0.7,6,1.4l0.1,6.3h-1.1l-2.4-5.5c-0.6-0.5-1.4-1-2.8-1
				c-2.4,0-3.9,1.5-3.9,3.5c0,2.1,1.2,3.2,4,4.2l2.2,0.9c3.8,1.5,5.1,3.5,5.1,6.1c0,5.3-4.8,8.4-9.8,8.4c-2.7,0-5-0.8-6.8-1.5
				L143.6,18"/>
			<path id="Fill-10" class="st0" d="M165,21.8l0.1-10.9h-2.6V9.8l2.6-0.9l4.9-4.3h0.6V9h5.1v2h-5.1v11c0.5,1.7,1.8,2.2,3.2,2.2
				c0.8,0,1.6-0.2,1.8-0.3l0.2,1c-1.3,0.7-3.3,1.9-6.2,1.9C166.4,26.8,165,25,165,21.8"/>
			<path id="Fill-11" class="st0" d="M183.8,15.8c0,5,1.6,9.8,4.2,9.8c1.9,0,2.9-2.3,2.9-6.2c0-5.3-1.7-9.6-4.2-9.6
				C184.5,9.7,183.8,13.1,183.8,15.8L183.8,15.8z M177.9,17.9c0-5.4,4.2-9.4,9.6-9.4c5.6,0,9.5,3.6,9.5,8.8c0,5.5-4.1,9.5-9.5,9.5
				C181.3,26.8,177.9,22.6,177.9,17.9L177.9,17.9z"/>
			<path id="Fill-12" class="st0" d="M199.4,25.1l2.1-0.5V12.5l-2.1-1.4v-0.6l7-2h0.2l0.2,4.7h0.1l0.5-1.1c1.2-2.5,2.3-3.5,4.2-3.5
				c1.4,0,2.8,0.9,2.8,2.7c0,1.8-1.2,2.9-3.5,3.1l-2-1.6c-0.6,0.2-1.5,1.1-1.9,2.2v9.7l3.1,0.5v1.2h-10.9V25.1"/>
			<path id="Fill-13" class="st0" d="M233.2,14.7h5.6c-0.2-2.8-1.2-4.8-2.8-4.8C234.6,9.9,233.4,11.4,233.2,14.7L233.2,14.7z
				 M228.3,17.7c0-5.3,4.5-9.3,8.8-9.3c4.5,0,6.7,2.8,7.3,7.6h-11.2c0.1,4.6,3.2,6.9,6.4,6.9c1.9,0,3.3-0.8,4.4-1.5l0.6,0.7
				c-1.7,2.4-4.3,4.7-8.1,4.7C231.5,26.8,228.3,22.7,228.3,17.7L228.3,17.7z"/>
			<path id="Fill-14" class="st0" d="M247.9,25.7l-0.2-5.6h1l2.2,4.4c0.4,0.5,1.4,1,2.4,1c1.8,0,3-1.1,3-2.6c0-1.2-0.7-2.1-2.2-2.7
				l-2.4-0.9c-2.7-1-3.7-2.8-3.7-5.1c0-3.4,3-5.8,7.8-5.8c1.7,0,3.5,0.5,4.9,1.1l0,5.1h-0.9l-2-3.9c-0.6-0.5-1.4-0.9-2.3-0.9
				c-1.5,0-2.6,1-2.6,2.3c0,1.4,0.9,2.1,2.3,2.6l2.2,0.8c2.7,1,4.1,2.5,4.1,4.9c0,3.8-3.6,6.4-8.2,6.4
				C251.2,26.8,249.6,26.4,247.9,25.7"/>
			<path id="Fill-15" class="st1" d="M264.1,23.9c0-1.6,1.4-2.9,2.9-2.9c1.6,0,2.9,1.3,2.9,2.9c0,1.6-1.3,2.9-2.9,2.9
				C265.5,26.8,264.1,25.5,264.1,23.9"/>
		</g>
	</g>
</g>
</svg>
